<?xml version="1.0" encoding="UTF-8" standalone="no"?>
<!DOCTYPE svg PUBLIC "-//W3C//DTD SVG 1.1//EN" "http://www.w3.org/Graphics/SVG/1.1/DTD/svg11.dtd">
<svg width="100%" height="100%" viewBox="0 0 50 30" version="1.1" xmlns="http://www.w3.org/2000/svg" xmlns:xlink="http://www.w3.org/1999/xlink" xml:space="preserve" xmlns:serif="http://www.serif.com/" style="fill-rule:evenodd;clip-rule:evenodd;stroke-linejoin:round;stroke-miterlimit:2;">
    <g transform="matrix(1,0,0,1,1.78307,0)">
        <g transform="matrix(0.0053983,0,0,0.00529661,-8.66281,-13.2876)">
            <path d="M5308.19,2512.56L6404.93,2508.7L6404.93,8172.7L5308.19,8172.7L5308.19,2512.56Z"/>
        </g>
        <g transform="matrix(0.0053983,0,0,0.00529661,-8.66281,-13.2876)">
            <path d="M5136.56,8172.7L5136.56,6110.64L2808.1,2508.7L1604.73,2508.7L1604.73,8172.7L2807.89,8172.7L2807.89,4670.04L5136.56,8172.7Z"/>
        </g>
        <g transform="matrix(0.0053983,0,0,0.00529661,-8.66281,-13.2876)">
            <path d="M6558.98,6299.19L6556.78,4852.37L8621.64,2508.7L10097.1,2512.56L8050.5,4716.72L10206.3,8172.7L8788.54,8172.7L7295.26,5515.83L6558.98,6299.19Z"/>
        </g>
    </g>
</svg>
